<svg width="3648" height="945" viewBox="0 0 3648 945" fill="none" xmlns="http://www.w3.org/2000/svg">
<path d="M1258.99 425.088C1258.99 252.157 1366.65 120.035 1538.75 120.035C1680.14 120.035 1764.55 203.119 1778.78 311.588C1779.11 314.254 1777.01 316.619 1774.35 316.619H1665.61C1663.48 316.619 1661.68 315.087 1661.25 313.021C1649.52 256.321 1605.88 219.543 1538.79 219.543C1431.12 219.543 1379.75 309.256 1379.75 425.088C1379.75 540.919 1441.74 629.834 1539.62 629.834C1607.48 629.834 1655.82 589.99 1664.71 530.925C1665.04 528.726 1666.88 527.061 1669.11 527.061H1776.21C1778.81 527.061 1780.91 529.293 1780.67 531.858C1776.38 581.529 1754.52 629.334 1716.61 664.879C1676.64 702.391 1620.37 726.876 1539.62 726.876C1375.68 726.876 1259.02 600.451 1259.02 425.088H1258.99Z" fill="white"/>
<path d="M1800.56 505.845C1800.56 381.052 1889.48 284.809 2019.17 284.809C2148.86 284.809 2237.77 381.052 2237.77 505.845C2237.77 630.638 2148.86 726.881 2019.17 726.881C1889.48 726.881 1800.56 630.638 1800.56 505.845ZM2125.2 505.845C2125.2 424.293 2086.86 368.826 2019.17 368.826C1951.47 368.826 1913.13 424.293 1913.13 505.845C1913.13 587.396 1950.64 642.064 2019.17 642.064C2087.69 642.064 2125.2 587.43 2125.2 505.845Z" fill="white"/>
<path d="M2275.88 726.877H2373.62C2376.25 726.877 2378.69 728.442 2379.69 730.874C2389.68 755.026 2413.47 773.349 2462.17 773.349C2524.97 773.349 2555.15 743.167 2555.15 686.067V640.394H2552.68C2528.23 668.111 2496.42 689.332 2443.38 689.332C2350.4 689.332 2259.06 615.909 2259.06 489.484C2259.06 363.058 2334.11 284.738 2440.12 284.738C2492.32 284.738 2530.66 305.126 2555.95 340.205H2557.58V302.761C2557.58 299.096 2560.54 296.165 2564.18 296.165H2657.82C2661.49 296.165 2664.42 299.129 2664.42 302.761V682.769C2664.42 741.501 2645.66 781.477 2614.65 810.027C2579.57 842.641 2525.73 857.332 2463.74 857.332C2353.3 857.332 2284.04 811.56 2269.29 734.738C2268.49 730.641 2271.62 726.81 2275.78 726.81L2275.88 726.877ZM2560.88 487.052C2560.88 425.888 2528.26 373.685 2461.37 373.685C2405.1 373.685 2367.56 417.726 2367.56 487.885C2367.56 558.043 2405.07 600.451 2462.17 600.451C2532.33 600.451 2560.88 549.082 2560.88 487.085V487.052Z" fill="white"/>
<path d="M2812.1 353.292H2814.53C2843.08 308.419 2881.42 284.766 2938.52 284.766C3024.97 284.766 3082.9 350.027 3082.9 441.373V708.015C3082.9 711.68 3079.94 714.611 3076.31 714.611H2978.6C2974.93 714.611 2972 711.646 2972 708.015V457.697C2972 412.823 2945.92 381.009 2899.41 381.009C2850.47 381.009 2814.59 420.152 2814.59 477.252V708.015C2814.59 711.68 2811.63 714.611 2808 714.611H2710.29C2706.62 714.611 2703.69 711.646 2703.69 708.015V302.788C2703.69 299.124 2706.66 296.192 2710.29 296.192H2805.57C2809.23 296.192 2812.16 299.157 2812.16 302.788V353.292H2812.1Z" fill="white"/>
<path d="M3141.73 131.434H3239.44C3243.11 131.434 3246.04 134.399 3246.04 138.03V224.312C3246.04 227.977 3243.07 230.908 3239.44 230.908H3141.73C3138.07 230.908 3135.14 227.943 3135.14 224.312V138.03C3135.14 134.365 3138.1 131.434 3141.73 131.434ZM3141.73 296.203H3239.44C3243.11 296.203 3246.04 299.168 3246.04 302.799V708.026C3246.04 711.69 3243.07 714.622 3239.44 714.622H3141.73C3138.07 714.622 3135.14 711.657 3135.14 708.026V302.799C3135.14 299.134 3138.1 296.203 3141.73 296.203Z" fill="white"/>
<path d="M3282.68 579.225H3372.66C3375.76 579.225 3378.49 581.39 3379.13 584.455C3388.09 628.896 3421.63 648.551 3469.57 648.551C3517.51 648.551 3546.23 629.795 3546.23 600.412C3546.23 560.436 3493.22 556.372 3436.13 544.945C3361.07 530.254 3287.68 509.866 3287.68 418.52C3287.68 327.174 3362.74 284.766 3458.15 284.766C3564.91 284.766 3625.68 336.136 3636.71 415.855C3637.27 419.853 3634.17 423.45 3630.14 423.45H3543.03C3539.8 423.45 3537.03 421.119 3536.53 417.92C3529.94 377.245 3501.85 362.286 3456.51 362.286C3411.17 362.286 3384.72 378.61 3384.72 408.793C3384.72 444.671 3440.19 447.936 3499.72 460.195C3569.88 474.887 3647.37 494.442 3647.37 592.317C3647.37 676.334 3575.57 726.904 3471.17 726.904C3353.07 726.904 3285.81 671.437 3276.12 586.72C3275.65 582.756 3278.72 579.258 3282.68 579.258V579.225Z" fill="white"/>
<path d="M539.146 629.552C556.535 629.552 570.627 643.644 570.627 661.034V710.738C570.627 719.099 573.958 727.095 579.855 732.991L585.218 738.355C591.115 744.251 599.143 747.583 607.472 747.583H637.454C654.844 747.583 668.935 761.674 668.935 779.064V912.852C668.935 930.241 654.844 944.333 637.454 944.333H582.353C564.964 944.333 550.872 930.241 550.872 912.852V783.828C550.872 775.466 547.541 767.471 541.644 761.574L536.88 756.811C530.984 750.914 522.955 747.583 514.627 747.583H429.577C421.216 747.583 413.22 750.914 407.324 756.811L402.727 761.408C396.83 767.305 393.499 775.333 393.499 783.661V912.852C393.499 930.241 379.407 944.333 362.017 944.333H306.917C289.527 944.333 275.436 930.241 275.436 912.852V779.064C275.436 761.674 289.527 747.583 306.917 747.583H336.699C345.061 747.583 353.056 744.251 358.953 738.355L364.583 732.725C370.479 726.829 373.811 718.8 373.811 710.471V661.001C373.811 643.611 387.902 629.52 405.292 629.52H539.146V629.552Z" fill="white"/>
<path d="M539.146 629.552C556.535 629.552 570.627 643.644 570.627 661.034V710.738C570.627 719.099 573.958 727.095 579.855 732.991L585.218 738.355C591.115 744.251 599.143 747.583 607.472 747.583H637.454C654.844 747.583 668.935 761.674 668.935 779.064V912.852C668.935 930.241 654.844 944.333 637.454 944.333H582.353C564.964 944.333 550.872 930.241 550.872 912.852V783.828C550.872 775.466 547.541 767.471 541.644 761.574L536.88 756.811C530.984 750.914 522.955 747.583 514.627 747.583H429.577C421.216 747.583 413.22 750.914 407.324 756.811L402.727 761.408C396.83 767.305 393.499 775.333 393.499 783.661V912.852C393.499 930.241 379.407 944.333 362.017 944.333H306.917C289.527 944.333 275.436 930.241 275.436 912.852V779.064C275.436 761.674 289.527 747.583 306.917 747.583H336.699C345.061 747.583 353.056 744.251 358.953 738.355L364.583 732.725C370.479 726.829 373.811 718.8 373.811 710.471V661.001C373.811 643.611 387.902 629.52 405.292 629.52H539.146V629.552Z" fill="white"/>
<path d="M165.302 275.41C182.691 275.41 196.783 289.502 196.783 306.891V336.674C196.783 345.036 200.114 353.031 206.011 358.927L211.641 364.557C217.537 370.454 225.566 373.785 233.894 373.785H283.331C300.721 373.785 314.813 387.877 314.813 405.267V539.121C314.813 556.511 300.721 570.602 283.331 570.602H233.628C225.266 570.602 217.271 573.934 211.374 579.83L205.977 585.227C200.081 591.123 196.75 599.152 196.75 607.48V637.429C196.75 654.819 182.658 668.911 165.268 668.911H31.4811C14.0915 668.911 0 654.819 0 637.429V582.329C0 564.939 14.0915 550.847 31.4811 550.847H160.504C168.866 550.847 176.862 547.516 182.758 541.619L187.522 536.855C193.418 530.959 196.75 522.93 196.75 514.602V429.519C196.75 421.157 193.418 413.162 187.522 407.265L182.958 402.701C177.061 396.805 169.033 393.473 160.705 393.473H31.4811C14.0915 393.473 0 379.382 0 361.992V306.891C0 289.502 14.0915 275.41 31.4811 275.41H165.268H165.302Z" fill="white"/>
<path d="M165.302 275.41C182.691 275.41 196.783 289.502 196.783 306.891V336.674C196.783 345.036 200.114 353.031 206.011 358.927L211.641 364.557C217.537 370.454 225.566 373.785 233.894 373.785H283.331C300.721 373.785 314.813 387.877 314.813 405.267V539.121C314.813 556.511 300.721 570.602 283.331 570.602H233.628C225.266 570.602 217.271 573.934 211.374 579.83L205.977 585.227C200.081 591.123 196.75 599.152 196.75 607.48V637.429C196.75 654.819 182.658 668.911 165.268 668.911H31.4811C14.0915 668.911 0 654.819 0 637.429V582.329C0 564.939 14.0915 550.847 31.4811 550.847H160.504C168.866 550.847 176.862 547.516 182.758 541.619L187.522 536.855C193.418 530.959 196.75 522.93 196.75 514.602V429.519C196.75 421.157 193.418 413.162 187.522 407.265L182.958 402.701C177.061 396.805 169.033 393.473 160.705 393.473H31.4811C14.0915 393.473 0 379.382 0 361.992V306.891C0 289.502 14.0915 275.41 31.4811 275.41H165.268H165.302Z" fill="white"/>
<path d="M912.857 275.41C930.247 275.41 944.338 289.502 944.338 306.891V361.992C944.338 379.382 930.247 393.473 912.857 393.473H783.634C775.272 393.473 767.277 396.805 761.38 402.701L756.816 407.265C750.92 413.162 747.588 421.191 747.588 429.519V514.602C747.588 522.964 750.92 530.959 756.816 536.855L761.58 541.619C767.477 547.516 775.505 550.847 783.834 550.847H912.857C930.247 550.847 944.338 564.939 944.338 582.329V637.429C944.338 654.819 930.247 668.911 912.857 668.911H779.07C761.68 668.911 747.588 654.819 747.588 637.429V607.48C747.588 599.118 744.257 591.123 738.361 585.227L732.964 579.83C727.067 573.934 719.039 570.602 710.71 570.602H661.007C643.617 570.602 629.525 556.511 629.525 539.121V405.267C629.525 387.877 643.617 373.785 661.007 373.785H710.444C718.806 373.785 726.801 370.454 732.697 364.557L738.328 358.927C744.224 353.031 747.555 345.002 747.555 336.674V306.891C747.555 289.502 761.647 275.41 779.037 275.41H912.824H912.857Z" fill="white"/>
<path d="M912.857 275.41C930.247 275.41 944.338 289.502 944.338 306.891V361.992C944.338 379.382 930.247 393.473 912.857 393.473H783.634C775.272 393.473 767.277 396.805 761.38 402.701L756.816 407.265C750.92 413.162 747.588 421.191 747.588 429.519V514.602C747.588 522.964 750.92 530.959 756.816 536.855L761.58 541.619C767.477 547.516 775.505 550.847 783.834 550.847H912.857C930.247 550.847 944.338 564.939 944.338 582.329V637.429C944.338 654.819 930.247 668.911 912.857 668.911H779.07C761.68 668.911 747.588 654.819 747.588 637.429V607.48C747.588 599.118 744.257 591.123 738.361 585.227L732.964 579.83C727.067 573.934 719.039 570.602 710.71 570.602H661.007C643.617 570.602 629.525 556.511 629.525 539.121V405.267C629.525 387.877 643.617 373.785 661.007 373.785H710.444C718.806 373.785 726.801 370.454 732.697 364.557L738.328 358.927C744.224 353.031 747.555 345.002 747.555 336.674V306.891C747.555 289.502 761.647 275.41 779.037 275.41H912.824H912.857Z" fill="white"/>
<path d="M539.08 373.812C556.47 373.812 570.561 387.904 570.561 405.294V539.081C570.561 556.471 556.47 570.563 539.08 570.563H405.293C387.903 570.563 373.812 556.471 373.812 539.081V405.294C373.812 387.904 387.903 373.812 405.293 373.812H539.08Z" fill="white"/>
<path d="M539.08 373.812C556.47 373.812 570.561 387.904 570.561 405.294V539.081C570.561 556.471 556.47 570.563 539.08 570.563H405.293C387.903 570.563 373.812 556.471 373.812 539.081V405.294C373.812 387.904 387.903 373.812 405.293 373.812H539.08Z" fill="white"/>
<path d="M362.018 0C379.408 0 393.5 14.0915 393.5 31.4812V160.672C393.5 169.033 396.831 177.028 402.728 182.925L407.325 187.522C413.221 193.419 421.25 196.75 429.578 196.75H514.628C522.989 196.75 530.984 193.419 536.881 187.522L541.678 182.725C547.575 176.828 550.906 168.8 550.906 160.472V31.4812C550.906 14.0915 564.998 0 582.387 0H637.488C654.878 0 668.969 14.0915 668.969 31.4812V165.269C668.969 182.659 654.878 196.75 637.488 196.75H607.506C599.144 196.75 591.149 200.082 585.252 205.978L579.889 211.342C573.992 217.238 570.661 225.266 570.661 233.595V283.299C570.661 300.689 556.57 314.78 539.18 314.78H405.326C387.936 314.78 373.845 300.689 373.845 283.299V233.862C373.845 225.5 370.513 217.504 364.617 211.608L358.987 205.978C353.091 200.082 345.062 196.75 336.733 196.75H306.951C289.562 196.75 275.47 182.659 275.47 165.269V31.4812C275.47 14.0915 289.562 0 306.951 0H362.052H362.018Z" fill="white"/>
<path d="M362.018 0C379.408 0 393.5 14.0915 393.5 31.4812V160.672C393.5 169.033 396.831 177.028 402.728 182.925L407.325 187.522C413.221 193.419 421.25 196.75 429.578 196.75H514.628C522.989 196.75 530.984 193.419 536.881 187.522L541.678 182.725C547.575 176.828 550.906 168.8 550.906 160.472V31.4812C550.906 14.0915 564.998 0 582.387 0H637.488C654.878 0 668.969 14.0915 668.969 31.4812V165.269C668.969 182.659 654.878 196.75 637.488 196.75H607.506C599.144 196.75 591.149 200.082 585.252 205.978L579.889 211.342C573.992 217.238 570.661 225.266 570.661 233.595V283.299C570.661 300.689 556.57 314.78 539.18 314.78H405.326C387.936 314.78 373.845 300.689 373.845 283.299V233.862C373.845 225.5 370.513 217.504 364.617 211.608L358.987 205.978C353.091 200.082 345.062 196.75 336.733 196.75H306.951C289.562 196.75 275.47 182.659 275.47 165.269V31.4812C275.47 14.0915 289.562 0 306.951 0H362.052H362.018Z" fill="white"/>
</svg>
